<svg width="16" height="16" fill="none" xmlns="http://www.w3.org/2000/svg">
    <g clip-path="url(#a)" fill="#4CAF50">
        <path d="m7.502 4.744-1.55 1.55c-.571.57-1.146 1.142-1.713 1.72-.134.136-.235.32-.274.499-.206.943-.405 1.886-.604 2.829l-.111.522a.744.744 0 0 0 .19.682c.133.134.319.209.515.209a.958.958 0 0 0 .166-.017l.575-.12c.913-.193 1.83-.389 2.744-.578.212-.046.391-.14.545-.294 2.564-2.568 5.13-5.132 7.694-7.694.19-.19.294-.414.32-.692a.453.453 0 0 0-.01-.133l-.046-.2c-.036-.166-.075-.355-.153-.538-.48-1.096-1.276-1.88-2.366-2.32-.218-.088-.45-.117-.652-.144L12.716.02c-.293-.036-.561.062-.793.297-1.468 1.475-2.946 2.953-4.421 4.428ZM12.608.805h.017l.055.007c.17.02.327.039.45.091.888.36 1.54.999 1.936 1.9.045.104.075.238.104.378l.033.156a.248.248 0 0 1-.082.14c-2.568 2.562-5.133 5.13-7.698 7.695a.257.257 0 0 1-.14.075l-2.747.578-.483.1.091-.427c.2-.94.398-1.882.6-2.822a.285.285 0 0 1 .062-.108c.568-.574 1.136-1.145 1.707-1.713l1.55-1.55C9.541 3.827 11.019 2.35 12.494.867c.062-.052.092-.062.114-.062Z"/>
        <path d="M1.27 3.57h5.697a.401.401 0 1 0 0-.803H1.269A1.27 1.27 0 0 0 0 4.036v10.683c0 .702.571 1.27 1.27 1.27h10.68a1.27 1.27 0 0 0 1.269-1.27V9.254a.401.401 0 1 0-.803 0v5.465c0 .258-.212.47-.47.47H1.27a.472.472 0 0 1-.47-.47V4.04c0-.258.213-.47.47-.47Z"/>
    </g>
    <defs>
        <clipPath id="a">
            <path fill="#fff" d="M0 0h16v16H0z"/>
        </clipPath>
    </defs>
</svg>
