<svg width="16" height="17" fill="none" xmlns="http://www.w3.org/2000/svg">
    <path d="M14.929 1.572a3.669 3.669 0 0 0-5.182-.001l-2.26 2.26L8.53 4.876l2.261-2.261a2.191 2.191 0 0 1 3.094.001 2.191 2.191 0 0 1 0 3.095l-3.392 3.392a2.173 2.173 0 0 1-1.547.64 2.174 2.174 0 0 1-1.548-.64l-1.043 1.043a3.64 3.64 0 0 0 2.59 1.073c.98 0 1.9-.38 2.591-1.073l3.393-3.392a3.668 3.668 0 0 0 0-5.181Z" fill="#4CAF50"/>
    <path d="M5.21 14.386a2.191 2.191 0 0 1-3.095-.001 2.191 2.191 0 0 1 0-3.095l3.392-3.392a2.19 2.19 0 0 1 3.095 0l1.043-1.043a3.668 3.668 0 0 0-5.182 0l-3.392 3.392a3.669 3.669 0 0 0 0 5.181A3.653 3.653 0 0 0 3.663 16.5c.938 0 1.876-.357 2.59-1.071l2.26-2.262-1.043-1.043-2.26 2.261Z" fill="#4CAF50"/>
</svg>
