<svg width="10" height="11" fill="none" xmlns="http://www.w3.org/2000/svg">
    <g clip-path="url(#a)">
        <path d="m5.892 5.5 4.043-4.042a.223.223 0 0 0 0-.316L9.358.565a.224.224 0 0 0-.315 0L5 4.608.958.565a.23.23 0 0 0-.316 0l-.576.577a.223.223 0 0 0 0 .316L4.108 5.5.066 9.542a.223.223 0 0 0 0 .316l.576.577a.224.224 0 0 0 .316 0L5 6.392l4.043 4.043a.224.224 0 0 0 .315 0l.577-.577a.223.223 0 0 0 0-.316L5.892 5.5Z" fill="#333"/>
    </g>
    <defs>
        <clipPath id="a">
            <path fill="#fff" transform="translate(0 .5)" d="M0 0h10v10H0z"/>
        </clipPath>
    </defs>
</svg>
